<?xml version="1.0" encoding="utf-8"?>
<!-- Generator: Adobe Illustrator 15.0.0, SVG Export Plug-In . SVG Version: 6.00 Build 0)  -->
<!DOCTYPE svg PUBLIC "-//W3C//DTD SVG 1.1//EN" "http://www.w3.org/Graphics/SVG/1.1/DTD/svg11.dtd">
<svg version="1.1" id="Calque_1" xmlns="http://www.w3.org/2000/svg" xmlns:xlink="http://www.w3.org/1999/xlink" x="0px" y="0px"
	 width="24.945px" height="24.945px" viewBox="0 0 24.945 24.945" enable-background="new 0 0 24.945 24.945" xml:space="preserve">
<g>
	<defs>
		<rect id="SVGID_1_" width="25" height="25.002"/>
	</defs>
	<clipPath id="SVGID_2_">
		<use xlink:href="#SVGID_1_"  overflow="visible"/>
	</clipPath>
	<path clip-path="url(#SVGID_2_)" d="M9.295,11.13c0.979-0.979,2.684-0.979,3.661,0l0.916,0.914c0.506,0.507,1.324,0.507,1.83,0
		c0.506-0.506,0.506-1.325,0-1.83L14.788,9.3c-0.979-0.98-2.278-1.52-3.662-1.52c-1.383,0-2.683,0.539-3.662,1.518l-5.95,5.948
		c-2.019,2.02-2.019,5.305,0,7.324l0.915,0.912c0.979,0.98,2.278,1.52,3.663,1.52c1.383,0,2.682-0.541,3.659-1.518l2.813-2.811
		c0.506-0.508,0.506-1.326,0-1.83c-0.506-0.508-1.325-0.508-1.83,0l-2.813,2.809c-0.977,0.98-2.681,0.98-3.661,0l-0.915-0.914
		c-1.009-1.01-1.009-2.65,0-3.66L9.295,11.13z"/>
	<path clip-path="url(#SVGID_2_)" d="M17.534,15.705l5.949-5.95C24.461,8.776,25,7.477,25,6.095c0-1.384-0.539-2.684-1.518-3.661
		l-0.914-0.916C21.588,0.539,20.29,0,18.907,0s-2.684,0.539-3.66,1.518l-2.571,2.569c-0.506,0.506-0.506,1.326-0.001,1.83
		c0.505,0.507,1.326,0.507,1.832,0l2.57-2.569c0.49-0.489,1.139-0.759,1.83-0.759s1.342,0.27,1.83,0.759l0.916,0.916
		c0.488,0.488,0.758,1.139,0.758,1.831c0,0.691-0.27,1.34-0.758,1.829l-5.951,5.947c-0.977,0.98-2.682,0.98-3.66,0.002
		c-0.505-0.504-1.324-0.504-1.83-0.002c-0.506,0.508-0.506,1.324-0.001,1.832c0.978,0.979,2.278,1.518,3.661,1.518
		C15.256,17.221,16.555,16.682,17.534,15.705"/>
</g>
</svg>
